#define image_raw_width 128
#define image_raw_height 64
static uint8_t image_raw_bits[] = {
  0x00, 0x00, 0x00, 0x00, 0x00, 0x00, 0x00, 0x00, 0x00, 0x00, 0xC0, 0x0F, 
  0x00, 0x00, 0x00, 0x00, 0x00, 0x00, 0x00, 0x00, 0x00, 0x00, 0x00, 0x00, 
  0x00, 0x00, 0x7C, 0x06, 0x00, 0x00, 0x00, 0x00, 0x00, 0x00, 0x00, 0x00, 
  0x00, 0x00, 0x00, 0x00, 0x00, 0x00, 0xF3, 0x05, 0x01, 0x00, 0x00, 0x00, 
  0x00, 0x00, 0x00, 0x00, 0x00, 0x00, 0x00, 0x00, 0x00, 0x00, 0xFB, 0x1F, 
  0x02, 0x00, 0x00, 0x00, 0x00, 0x00, 0x00, 0x00, 0x00, 0x00, 0x00, 0x00, 
  0x00, 0x80, 0x7F, 0xE3, 0x04, 0xC0, 0x03, 0x00, 0x00, 0x00, 0x00, 0x00, 
  0x00, 0x00, 0x00, 0x00, 0x00, 0xC0, 0x3C, 0x9E, 0x00, 0x00, 0x04, 0x00, 
  0x00, 0x00, 0x00, 0x00, 0x00, 0x00, 0x00, 0x00, 0x00, 0xE0, 0x1C, 0x0C, 
  0x08, 0x20, 0x04, 0x00, 0x00, 0x00, 0x00, 0x00, 0x00, 0x00, 0x00, 0x00, 
  0x00, 0xE0, 0x9D, 0x01, 0x00, 0x20, 0x04, 0x00, 0x00, 0x00, 0x00, 0x00, 
  0x00, 0x00, 0x00, 0x00, 0x00, 0xF0, 0xF9, 0xC7, 0x03, 0x00, 0x02, 0x00, 
  0x18, 0xF3, 0x0F, 0x03, 0x00, 0x00, 0x00, 0x00, 0x00, 0xB0, 0xE0, 0x0F, 
  0x07, 0xA0, 0x05, 0x00, 0x18, 0x33, 0x98, 0x01, 0x00, 0x00, 0x00, 0x00, 
  0x00, 0x70, 0x00, 0x07, 0x06, 0x00, 0x04, 0x00, 0x18, 0x33, 0x98, 0x01, 
  0x00, 0x00, 0x00, 0x00, 0x00, 0x70, 0x00, 0x00, 0x10, 0x20, 0x00, 0x00, 
  0x18, 0x33, 0xF0, 0x00, 0x00, 0x00, 0x00, 0x00, 0x00, 0x30, 0x00, 0x00, 
  0x0C, 0x00, 0x04, 0x00, 0xF8, 0xF3, 0xF1, 0x00, 0x00, 0x00, 0x00, 0x00, 
  0x00, 0x30, 0x00, 0x00, 0x14, 0x20, 0x04, 0x00, 0x18, 0x33, 0x60, 0x00, 
  0x00, 0x00, 0x00, 0x00, 0x00, 0x30, 0x00, 0x00, 0x1C, 0x00, 0x04, 0x00, 
  0x18, 0x33, 0x60, 0x00, 0x00, 0x00, 0x00, 0x00, 0x00, 0x30, 0x00, 0x00, 
  0x0E, 0x20, 0x04, 0x00, 0x18, 0x33, 0x60, 0x00, 0x00, 0x00, 0x00, 0x00, 
  0x00, 0x38, 0x00, 0x00, 0x0E, 0x20, 0x00, 0x00, 0x18, 0xF3, 0x63, 0x00, 
  0x00, 0x00, 0x00, 0x00, 0x00, 0x3C, 0x00, 0x00, 0x0E, 0x20, 0x04, 0x00, 
  0x00, 0x00, 0x00, 0x00, 0x00, 0x00, 0x00, 0x00, 0x00, 0xFC, 0x03, 0x00, 
  0x0C, 0x00, 0x00, 0x00, 0x00, 0x00, 0x00, 0x00, 0x00, 0x00, 0x00, 0x00, 
  0x00, 0xFC, 0x1F, 0x1E, 0x0C, 0x20, 0x04, 0x00, 0x00, 0x00, 0x00, 0x00, 
  0x00, 0x00, 0x00, 0x00, 0x00, 0xFC, 0x1E, 0x7F, 0x14, 0x00, 0x02, 0x00, 
  0x00, 0x00, 0x00, 0x00, 0x00, 0x00, 0x00, 0x00, 0x00, 0xFC, 0x10, 0x1F, 
  0x00, 0x20, 0x06, 0x00, 0x00, 0x00, 0x00, 0x00, 0x00, 0x00, 0x00, 0x00, 
  0x00, 0x1C, 0x10, 0x3A, 0x08, 0x1C, 0x0A, 0x00, 0xC0, 0x6F, 0x18, 0x9E, 
  0x31, 0x86, 0xF1, 0x30, 0x0C, 0x18, 0x10, 0x04, 0x08, 0x12, 0x12, 0x00, 
  0xC0, 0x60, 0x18, 0xA3, 0x19, 0xCC, 0x98, 0x31, 0x0C, 0x18, 0x10, 0x00, 
  0x08, 0x10, 0x02, 0x00, 0xC0, 0x60, 0x98, 0x81, 0x19, 0xCC, 0x0C, 0x33, 
  0x0C, 0x18, 0x18, 0x00, 0xD0, 0x11, 0x22, 0x00, 0xC0, 0x60, 0x98, 0x81, 
  0x0D, 0x78, 0x0C, 0x33, 0x0C, 0x10, 0x14, 0x00, 0x24, 0x26, 0x0A, 0x00, 
  0xC0, 0x67, 0x98, 0x81, 0x07, 0x78, 0x0C, 0x33, 0x0C, 0x10, 0x1C, 0x82, 
  0x30, 0x11, 0x30, 0x00, 0xC0, 0x60, 0x98, 0x81, 0x0D, 0x30, 0x0C, 0x33, 
  0x0C, 0x10, 0xDE, 0x46, 0x12, 0x00, 0x22, 0x00, 0xC0, 0x60, 0x98, 0x81, 
  0x19, 0x30, 0x0C, 0x33, 0x0C, 0x30, 0x7F, 0x04, 0x01, 0x00, 0x42, 0x00, 
  0xC0, 0xC0, 0x0C, 0xA3, 0x19, 0x30, 0x98, 0x61, 0x06, 0x20, 0x1F, 0x04, 
  0x08, 0x00, 0x94, 0x00, 0xC0, 0x80, 0x07, 0x9E, 0x31, 0x30, 0xF0, 0xC0, 
  0x03, 0x20, 0xE2, 0x87, 0x10, 0x01, 0x90, 0x00, 0x00, 0x00, 0x00, 0x00, 
  0x00, 0x00, 0x00, 0x00, 0x00, 0x60, 0x0E, 0x81, 0x10, 0x01, 0x90, 0x01, 
  0x00, 0x00, 0x00, 0x00, 0x00, 0x00, 0x00, 0x00, 0x00, 0x60, 0xFE, 0xC1, 
  0x11, 0x81, 0x14, 0x01, 0x00, 0x00, 0x00, 0x00, 0x00, 0x00, 0x00, 0x00, 
  0x00, 0x40, 0xEA, 0xA0, 0x03, 0x01, 0x10, 0x00, 0x00, 0x00, 0x00, 0x00, 
  0x00, 0x00, 0x00, 0x00, 0x00, 0x40, 0x02, 0xA0, 0x17, 0x41, 0x10, 0x01, 
  0xC0, 0xFF, 0xFF, 0xFF, 0xFF, 0xFF, 0xFF, 0xFF, 0x03, 0x40, 0x7C, 0x90, 
  0x0F, 0x40, 0x10, 0x00, 0x00, 0x00, 0x00, 0x00, 0x00, 0x00, 0x00, 0x00, 
  0x00, 0x40, 0x10, 0xC8, 0x0F, 0x00, 0x80, 0x00, 0x00, 0x00, 0x00, 0x00, 
  0x00, 0x00, 0x00, 0x00, 0x00, 0xC0, 0x00, 0xC4, 0x0F, 0x00, 0x00, 0x00, 
  0x00, 0x00, 0x00, 0x00, 0x00, 0x00, 0x00, 0x00, 0x00, 0x02, 0x01, 0xE1, 
  0x0F, 0x00, 0x80, 0x00, 0x00, 0x00, 0x00, 0x00, 0x00, 0x00, 0x00, 0x00, 
  0x80, 0x73, 0x86, 0xE0, 0x0F, 0x00, 0x00, 0x00, 0x00, 0x00, 0x00, 0x00, 
  0x00, 0x00, 0x00, 0x00, 0xE0, 0x79, 0x1C, 0xF0, 0x0F, 0x00, 0x40, 0x00, 
  0x00, 0x00, 0x00, 0x00, 0x00, 0x00, 0x00, 0x00, 0xF0, 0xF7, 0x07, 0xF8, 
  0x0F, 0x00, 0x20, 0x00, 0x00, 0x00, 0x00, 0x00, 0x00, 0x00, 0x00, 0x00, 
  0xFC, 0xF0, 0x08, 0xF4, 0x1F, 0x00, 0x10, 0x00, 0x00, 0x00, 0x00, 0x00, 
  0x00, 0x00, 0x00, 0x00, 0xFC, 0x70, 0x1E, 0xFA, 0x1F, 0x00, 0x08, 0x00, 
  0x00, 0x00, 0x00, 0x00, 0x00, 0x00, 0x00, 0x00, 0xFE, 0x10, 0x1E, 0xFB, 
  0x1F, 0x00, 0x04, 0x00, 0x00, 0x7C, 0x0C, 0xC7, 0x0F, 0xCF, 0x18, 0x00, 
  0x7E, 0xF0, 0xE3, 0xFD, 0x3F, 0x00, 0x00, 0x00, 0x00, 0xCC, 0x0C, 0x07, 
  0x83, 0xD1, 0x18, 0x00, 0x7F, 0x30, 0xC1, 0xFC, 0x3F, 0x01, 0x02, 0x00, 
  0x00, 0xCC, 0x8C, 0x0D, 0xC3, 0xC0, 0x18, 0x00, 0x7F, 0xD0, 0xC0, 0xFE, 
  0x2F, 0xC1, 0x00, 0x00, 0x00, 0xCC, 0x8C, 0x0D, 0xC3, 0xC0, 0x18, 0x00, 
  0x3F, 0x78, 0x00, 0xFF, 0x4F, 0x80, 0x00, 0x00, 0x00, 0x7C, 0xCC, 0x18, 
  0xC3, 0xC0, 0x1F, 0x00, 0x3F, 0x60, 0x00, 0xFF, 0x1F, 0x41, 0x00, 0x00, 
  0x00, 0xCC, 0xCC, 0x18, 0xC3, 0xC0, 0x18, 0x80, 0x3F, 0x4C, 0x80, 0xFF, 
  0x3F, 0x46, 0x00, 0x00, 0x00, 0xCC, 0xCC, 0x1F, 0xC3, 0xC0, 0x18, 0x00, 
  0x3F, 0x1C, 0x80, 0xFF, 0x7F, 0xF0, 0x00, 0x00, 0x00, 0xCC, 0x6C, 0x30, 
  0x83, 0xD1, 0x98, 0x01, 0x3E, 0x32, 0xC0, 0xFF, 0xFF, 0xC0, 0x01, 0x00, 
  0x00, 0x7C, 0x6C, 0x30, 0x03, 0xCF, 0x98, 0x01, 0x18, 0x67, 0xC0, 0xFF, 
  0xFF, 0x03, 0x06, 0x00, 0x00, 0x00, 0x00, 0x00, 0x00, 0x00, 0x00, 0x00, 
  0x30, 0xEF, 0xE0, 0xFF, 0xFF, 0x3F, 0x04, 0x00, 0x00, 0x00, 0x00, 0x00, 
  0x00, 0x00, 0x00, 0x00, 0x80, 0x1C, 0xE0, 0xFF, 0xFF, 0xFF, 0x08, 0x00, 
  0x00, 0x00, 0x00, 0x00, 0x00, 0x00, 0x00, 0x00, 0x00, 0x09, 0xC0, 0xFF, 
  0xFF, 0xFF, 0x0F, 0x00, 0x00, 0x00, 0x00, 0x00, 0x00, 0x00, 0x00, 0x00, 
  0x00, 0x00, 0x00, 0xFF, 0xFF, 0xFF, 0x0F, 0x00, 0x00, 0x00, 0x00, 0x00, 
  0x00, 0x00, 0x00, 0x00, 0x00, 0x00, 0x00, 0xFC, 0xCF, 0xFF, 0x07, 0x00, 
  0x00, 0x00, 0x00, 0x00, 0x00, 0x00, 0x00, 0x00, 0x00, 0x00, 0x00, 0xF0, 
  0x07, 0xFE, 0x07, 0x00, 0x00, 0x00, 0x00, 0x00, 0x00, 0x00, 0x00, 0x00, 
  0x00, 0x00, 0x00, 0x00, 0x02, 0xFC, 0x07, 0x00, 0x00, 0x00, 0x00, 0x00, 
  0x00, 0x00, 0x00, 0x00, 0x00, 0x00, 0x00, 0x00, 0x00, 0xF0, 0x03, 0x00, 
  0x00, 0x00, 0x00, 0x00, 0x00, 0x00, 0x00, 0x00, 0x00, 0x00, 0x00, 0x00, 
  0x00, 0xC0, 0x01, 0x00, };
